<svg width="32" height="32" viewBox="0 0 32 32" xmlns="http://www.w3.org/2000/svg">
  <defs>
    <linearGradient id="faviconGradient" x1="0%" y1="0%" x2="100%" y2="100%">
      <stop offset="0%" style="stop-color:#00baba;stop-opacity:1" />
      <stop offset="50%" style="stop-color:#8a2be2;stop-opacity:1" />
      <stop offset="100%" style="stop-color:#00baba;stop-opacity:1" />
    </linearGradient>
  </defs>
  
  <!-- Background circle -->
  <circle cx="16" cy="16" r="15" fill="url(#faviconGradient)" opacity="0.9"/>
  
  <!-- Guitar neck/fretboard -->
  <rect x="8" y="12" width="16" height="3" fill="#be975b" rx="1"/>
  
  <!-- Frets -->
  <line x1="10" y1="12" x2="10" y2="15" stroke="#806233" stroke-width="0.5"/>
  <line x1="13" y1="12" x2="13" y2="15" stroke="#806233" stroke-width="0.5"/>
  <line x1="16" y1="12" x2="16" y2="15" stroke="#806233" stroke-width="0.5"/>
  <line x1="19" y1="12" x2="19" y2="15" stroke="#806233" stroke-width="0.5"/>
  <line x1="22" y1="12" x2="22" y2="15" stroke="#806233" stroke-width="0.5"/>
  
  <!-- Strings -->
  <line x1="8" y1="12.5" x2="24" y2="12.5" stroke="#eee" stroke-width="0.3"/>
  <line x1="8" y1="13" x2="24" y2="13" stroke="#eee" stroke-width="0.3"/>
  <line x1="8" y1="13.5" x2="24" y2="13.5" stroke="#eee" stroke-width="0.3"/>
  <line x1="8" y1="14" x2="24" y2="14" stroke="#eee" stroke-width="0.3"/>
  <line x1="8" y1="14.5" x2="24" y2="14.5" stroke="#eee" stroke-width="0.3"/>
  <line x1="8" y1="15" x2="24" y2="15" stroke="#eee" stroke-width="0.3"/>
  
  <!-- Note dots on frets -->
  <circle cx="11.5" cy="13.5" r="0.8" fill="#ffffff" opacity="0.9"/>
  <circle cx="14.5" cy="13.5" r="0.8" fill="#ffffff" opacity="0.9"/>
  <circle cx="17.5" cy="13.5" r="0.8" fill="#ffffff" opacity="0.9"/>
  <circle cx="20.5" cy="13.5" r="0.8" fill="#ffffff" opacity="0.9"/>
  
  <!-- Guitar headstock -->
  <rect x="6" y="10" width="3" height="6" fill="#2a2a2a" rx="0.5"/>
  
  <!-- Tuning pegs -->
  <circle cx="7" cy="11" r="0.6" fill="#666"/>
  <circle cx="7" cy="12.5" r="0.6" fill="#666"/>
  <circle cx="7" cy="14" r="0.6" fill="#666"/>
  <circle cx="7" cy="15.5" r="0.6" fill="#666"/>
  
  <!-- Musical note -->
  <circle cx="26" cy="8" r="1.5" fill="#ffffff" opacity="0.8"/>
  <path d="M26 8 Q28 6 30 8" stroke="#ffffff" stroke-width="0.8" fill="none" opacity="0.8"/>
  <circle cx="30" cy="8" r="1"/>
</svg>