<svg width="16" height="16" viewBox="0 0 16 16" xmlns="http://www.w3.org/2000/svg">
  <defs>
    <linearGradient id="favicon16Gradient" x1="0%" y1="0%" x2="100%" y2="100%">
      <stop offset="0%" style="stop-color:#00baba;stop-opacity:1" />
      <stop offset="50%" style="stop-color:#8a2be2;stop-opacity:1" />
      <stop offset="100%" style="stop-color:#00baba;stop-opacity:1" />
    </linearGradient>
  </defs>
  
  <!-- Background circle -->
  <circle cx="8" cy="8" r="7.5" fill="url(#favicon16Gradient)" opacity="0.9"/>
  
  <!-- Guitar neck/fretboard -->
  <rect x="4" y="6" width="8" height="2" fill="#be975b" rx="0.5"/>
  
  <!-- Frets -->
  <line x1="5" y1="6" x2="5" y2="8" stroke="#806233" stroke-width="0.3"/>
  <line x1="6.5" y1="6" x2="6.5" y2="8" stroke="#806233" stroke-width="0.3"/>
  <line x1="8" y1="6" x2="8" y2="8" stroke="#806233" stroke-width="0.3"/>
  <line x1="9.5" y1="6" x2="9.5" y2="8" stroke="#806233" stroke-width="0.3"/>
  <line x1="11" y1="6" x2="11" y2="8" stroke="#806233" stroke-width="0.3"/>
  
  <!-- Strings -->
  <line x1="4" y1="6.3" x2="12" y2="6.3" stroke="#eee" stroke-width="0.2"/>
  <line x1="4" y1="6.6" x2="12" y2="6.6" stroke="#eee" stroke-width="0.2"/>
  <line x1="4" y1="6.9" x2="12" y2="6.9" stroke="#eee" stroke-width="0.2"/>
  <line x1="4" y1="7.2" x2="12" y2="7.2" stroke="#eee" stroke-width="0.2"/>
  <line x1="4" y1="7.5" x2="12" y2="7.5" stroke="#eee" stroke-width="0.2"/>
  <line x1="4" y1="7.8" x2="12" y2="7.8" stroke="#eee" stroke-width="0.2"/>
  
  <!-- Note dots on frets -->
  <circle cx="5.8" cy="6.9" r="0.4" fill="#ffffff" opacity="0.9"/>
  <circle cx="7.2" cy="6.9" r="0.4" fill="#ffffff" opacity="0.9"/>
  <circle cx="8.8" cy="6.9" r="0.4" fill="#ffffff" opacity="0.9"/>
  <circle cx="10.2" cy="6.9" r="0.4" fill="#ffffff" opacity="0.9"/>
  
  <!-- Guitar headstock -->
  <rect x="3" y="5" width="1.5" height="3" fill="#2a2a2a" rx="0.3"/>
  
  <!-- Tuning pegs -->
  <circle cx="3.3" cy="5.5" r="0.3" fill="#666"/>
  <circle cx="3.3" cy="6.2" r="0.3" fill="#666"/>
  <circle cx="3.3" cy="6.9" r="0.3" fill="#666"/>
  <circle cx="3.3" cy="7.6" r="0.3" fill="#666"/>
  
  <!-- Musical note -->
  <circle cx="13" cy="4" r="0.8" fill="#ffffff" opacity="0.8"/>
  <path d="M13 4 Q14 3 15 4" stroke="#ffffff" stroke-width="0.4" fill="none" opacity="0.8"/>
  <circle cx="15" cy="4" r="0.5"/>
</svg>
