<?xml version="1.0" encoding="UTF-8" standalone="no"?>
<!-- Created with Inkscape (http://www.inkscape.org/) -->
<svg
   xmlns:svg="http://www.w3.org/2000/svg"
   xmlns="http://www.w3.org/2000/svg"
   version="1.0"
   width="40"
   height="43"
   id="svg2">
  <defs
     id="defs4" />
  <g
     id="layer1">
     <path
        d="M 10.131369,42.2548 L 10.131369,8.235"
        style="fill:none;fill-opacity:0.75;fill-rule:evenodd;stroke:white;stroke-width:0.99003941px;stroke-linecap:butt;stroke-linejoin:miter;stroke-opacity:1"
        id="path1937" />
     <path
        d="M 17.131369,42.2565 L 17.131369,8.2333"
        style="fill:none;fill-opacity:0.75;fill-rule:evenodd;stroke:white;stroke-width:0.98829311px;stroke-linecap:butt;stroke-linejoin:miter;stroke-opacity:1"
        id="path1939" />
     <path
        d="M 24.131369,42.2442 L 24.131369,8.2456"
        style="fill:none;fill-opacity:0.75;fill-rule:evenodd;stroke:white;stroke-width:1.00071216px;stroke-linecap:butt;stroke-linejoin:miter;stroke-opacity:1"
        id="path1941" />
     <path
        d="M 31.131369,42.2583 L 31.131369,8.2315"
        style="fill:none;fill-opacity:0.75;fill-rule:evenodd;stroke:white;stroke-width:0.98655468px;stroke-linecap:butt;stroke-linejoin:miter;stroke-opacity:1"
        id="path1943" />
     <path
        d="M 3.1313687,14.2449 L 37.05994,14.2449"
        style="fill:none;fill-opacity:0.75;fill-rule:evenodd;stroke:white;stroke-width:1px;stroke-linecap:butt;stroke-linejoin:miter;stroke-opacity:1"
        id="path1947" />
     <path
        d="M 3.1313687,21.2449 L 37.05994,21.2449"
        style="fill:none;fill-opacity:0.75;fill-rule:evenodd;stroke:white;stroke-width:1px;stroke-linecap:butt;stroke-linejoin:miter;stroke-opacity:1"
        id="path1949" />
     <path
        d="M 3.1313687,28.2449 L 37.05994,28.2449"
        style="fill:none;fill-opacity:0.75;fill-rule:evenodd;stroke:white;stroke-width:1px;stroke-linecap:butt;stroke-linejoin:miter;stroke-opacity:1"
        id="path1951" />
     <path
        d="M 3.1313687,35.2449 L 37.05994,35.2449"
        style="fill:none;fill-opacity:0.75;fill-rule:evenodd;stroke:white;stroke-width:1px;stroke-linecap:butt;stroke-linejoin:miter;stroke-opacity:1"
        id="path1953" />
     <path
        d="M 43.035713 3.5228946 A 2.2321429 2.2321429 0 1 1  38.571427,3.5228946 A 2.2321429 2.2321429 0 1 1  43.035713 3.5228946 z"
        transform="matrix(0.999939,0,0,1.000003,-38.31908,-0.2603)"
        style="opacity:0.9;fill:none;fill-opacity:1;stroke:white;stroke-width:0.5;stroke-miterlimit:4;stroke-dasharray:none;stroke-dashoffset:0;stroke-opacity:1"
        id="path1955" />
     <path
        d="M 43.035713 3.5228946 A 2.2321429 2.2321429 0 1 1  38.571427,3.5228946 A 2.2321429 2.2321429 0 1 1  43.035713 3.5228946 z"
        transform="matrix(0.999939,0,0,1.000003,-23.71963,14.2397)"
        style="opacity:0.9;fill:white;fill-opacity:1;stroke:white;stroke-width:0.5;stroke-miterlimit:4;stroke-dasharray:none;stroke-dashoffset:0;stroke-opacity:1"
        id="path1957" />
     <path
        d="M 43.035713 3.5228946 A 2.2321429 2.2321429 0 1 1  38.571427,3.5228946 A 2.2321429 2.2321429 0 1 1  43.035713 3.5228946 z"
        transform="translate(-16.83165,14.2397)"
        style="opacity:0.9;fill:white;fill-opacity:1;stroke:white;stroke-width:0.5;stroke-miterlimit:4;stroke-dasharray:none;stroke-dashoffset:0;stroke-opacity:1"
        id="path1959" />
     <path
        d="M 43.035713 3.5228946 A 2.2321429 2.2321429 0 1 1  38.571427,3.5228946 A 2.2321429 2.2321429 0 1 1  43.035713 3.5228946 z"
        transform="translate(-9.654441,7.7397)"
        style="opacity:0.9;fill:white;fill-opacity:1;stroke:white;stroke-width:0.5;stroke-miterlimit:4;stroke-dasharray:none;stroke-dashoffset:0;stroke-opacity:1"
        id="path1961" />
     <path
        d="M 43.035713 3.5228946 A 2.2321429 2.2321429 0 1 1  38.571427,3.5228946 A 2.2321429 2.2321429 0 1 1  43.035713 3.5228946 z"
        transform="translate(-30.70909,-0.2603)"
        style="opacity:0.9;fill:none;fill-opacity:1;stroke:white;stroke-width:0.5;stroke-miterlimit:4;stroke-dasharray:none;stroke-dashoffset:0;stroke-opacity:1"
        id="path2851" />
     <path
        d="M 43.035713 3.5228946 A 2.2321429 2.2321429 0 1 1  38.571427,3.5228946 A 2.2321429 2.2321429 0 1 1  43.035713 3.5228946 z"
        transform="translate(-3.618535,-0.2603)"
        style="opacity:0.9;fill:none;fill-opacity:1;stroke:white;stroke-width:0.5;stroke-miterlimit:4;stroke-dasharray:none;stroke-dashoffset:0;stroke-opacity:1"
        id="path2853" />
     <path
        d="M 2.8762735,42.5 L 2.8762735,7.9898 L 37.386463,7.9898 L 37.386463,42.5"
        style="opacity:0.9;fill:none;fill-opacity:1;stroke:white;stroke-width:1;stroke-miterlimit:4;stroke-dasharray:none;stroke-dashoffset:0;stroke-opacity:1"
        id="rect2855" />
     <path
        d="M 2.3737543,7.8762453 L 37.817554,7.8762453"
        style="fill:none;fill-opacity:0.75;fill-rule:evenodd;stroke:white;stroke-width:2;stroke-linecap:butt;stroke-linejoin:miter;stroke-miterlimit:4;stroke-dasharray:none;stroke-opacity:1"
        id="path6400" />
  </g>
</svg>
